<svg width="870" height="750" viewBox="0 0 870 750" fill="none" xmlns="http://www.w3.org/2000/svg">
<g clip-path="url(#clip0_221_1804)">
<rect width="870" height="750" fill="#F8F8FF"/>
<path d="M-253.256 53.2518C-227.773 113.34 -206.146 180.99 -151.438 216.585C-96.1824 252.537 -24.7395 250.519 40.9217 244.657C103.012 239.114 159.336 213.099 214.424 183.923C271.226 153.84 334.465 127.1 367.263 71.8215C400.163 16.3732 396.398 -52.2221 392.732 -116.592C389.215 -178.338 374.795 -238.023 346.483 -293.008C317.223 -349.835 279.45 -402.325 226.885 -438.69C171.882 -476.742 107.593 -509.719 40.9218 -504.398C-24.6339 -499.165 -71.0768 -442.083 -128.657 -410.311C-187.547 -377.817 -269.733 -373.605 -302.534 -314.886C-335.368 -256.11 -301.668 -183.323 -292.736 -116.592C-284.89 -57.9833 -276.343 -1.18641 -253.256 53.2518Z" stroke="#14172A" stroke-opacity="0.05"/>
<path d="M-337.609 -138.997C-355.403 -76.2009 -380.939 -9.92813 -360.609 52.0936C-340.075 114.736 -283.134 157.932 -228.29 194.509C-176.428 229.096 -116.232 244.116 -55.0182 255.899C8.09929 268.048 74.1389 286.835 134.338 264.308C194.723 241.712 234.773 185.895 272.251 133.433C308.202 83.1093 334.364 27.5601 346.756 -33.032C359.562 -95.6536 363.016 -160.23 344.839 -221.508C325.817 -285.63 296.38 -351.615 241.088 -389.245C186.72 -426.246 114.757 -410.863 49.9744 -422.184C-16.2811 -433.763 -82.9695 -481.98 -145.327 -456.774C-207.746 -431.542 -227.093 -353.7 -261.947 -296.099C-292.559 -245.508 -321.488 -195.889 -337.609 -138.997Z" stroke="#14172A" stroke-opacity="0.05"/>
<path d="M658.891 994.023C709.867 1004.18 761.669 1016.09 812.038 1003.37C865.475 989.878 913.757 960.276 950.681 920.352C988.877 879.053 1022.44 828.776 1024.84 773.28C1027.19 719.038 986.049 674.388 963.475 624.741C941.819 577.113 933.184 522.597 894.489 486.604C854.393 449.308 800.048 429.357 745.134 421.644C690.278 413.94 634.309 422.129 583.147 442.875C532.477 463.422 488.74 497.035 455.118 539.248C421.694 581.211 401.099 630.847 391.772 683.146C382.285 736.344 377.053 793.445 401.108 842.098C424.706 889.826 474.9 918.02 521.467 945.464C563.871 970.455 610.317 984.343 658.891 994.023Z" fill="#F8F8FF" stroke="#14172A" stroke-opacity="0.1"/>
<path d="M1075.31 774.414C1091.6 726.376 1109.78 677.744 1102.64 627.636C1095.06 574.476 1070.42 524.424 1033.91 484.138C996.146 442.465 948.671 404.225 892.245 395.462C837.095 386.898 786.696 421.432 733.347 437.464C682.168 452.843 625.462 454.85 584.193 488.031C541.43 522.413 514.735 572.567 500.478 624.691C486.237 676.76 488.106 731.748 503.364 783.554C518.476 834.862 547.742 880.992 586.97 918.355C625.967 955.499 674.291 981.146 726.647 996.223C779.902 1011.56 837.638 1023.24 890.143 1005.66C941.651 988.422 976.286 943.233 1009.73 901.459C1040.19 863.42 1059.78 820.188 1075.31 774.414Z" stroke="#14172A" stroke-opacity="0.1"/>
</g>
<defs>
<clipPath id="clip0_221_1804">
<rect width="870" height="750" fill="white"/>
</clipPath>
</defs>
</svg>
