<svg width="19" height="18" viewBox="0 0 19 18" fill="none" xmlns="http://www.w3.org/2000/svg">
<path d="M11.9299 16.7025H11.8324C8.50239 16.7025 6.89739 15.39 6.61989 12.45C6.58989 12.1425 6.81489 11.865 7.12989 11.835C7.43739 11.805 7.71489 12.0375 7.74489 12.345C7.96239 14.7 9.07239 15.5775 11.8399 15.5775H11.9374C14.9899 15.5775 16.0699 14.4975 16.0699 11.445V6.55499C16.0699 3.50249 14.9899 2.42249 11.9374 2.42249H11.8399C9.05739 2.42249 7.94739 3.31499 7.74489 5.71499C7.70739 6.02249 7.45239 6.25499 7.12989 6.22499C6.81489 6.20249 6.58989 5.92499 6.61239 5.61749C6.86739 2.63249 8.47989 1.29749 11.8324 1.29749H11.9299C15.6124 1.29749 17.1874 2.87249 17.1874 6.55499V11.445C17.1874 15.1275 15.6124 16.7025 11.9299 16.7025Z" fill="#F8F8FF"/>
<path d="M11.66 9.5625H2C1.6925 9.5625 1.4375 9.3075 1.4375 9C1.4375 8.6925 1.6925 8.4375 2 8.4375H11.66C11.9675 8.4375 12.2225 8.6925 12.2225 9C12.2225 9.3075 11.975 9.5625 11.66 9.5625Z" fill="#F8F8FF"/>
<path d="M9.98738 12.075C9.84488 12.075 9.70238 12.0225 9.58988 11.91C9.37238 11.6925 9.37238 11.3325 9.58988 11.115L11.7049 9.00001L9.58988 6.88501C9.37238 6.66751 9.37238 6.3075 9.58988 6.09C9.80738 5.8725 10.1674 5.8725 10.3849 6.09L12.8974 8.60251C13.1149 8.82001 13.1149 9.18 12.8974 9.3975L10.3849 11.91C10.2724 12.0225 10.1299 12.075 9.98738 12.075Z" fill="#F8F8FF"/>
</svg>
