<svg width="86" height="31" viewBox="0 0 86 31" fill="none" xmlns="http://www.w3.org/2000/svg">
<rect x="1" width="30" height="30" rx="15" fill="#14172A"/>
<rect x="1" width="30" height="30" rx="15" stroke="#14172A"/>
<path d="M16.556 20V11.236H16.332L14.722 14.54H13.168L15.338 10.2H18.026V20H16.556Z" fill="#F8F8FF"/>
<line x1="31" y1="14.5" x2="56" y2="14.5" stroke="#14172A" stroke-opacity="0.5"/>
<rect x="56" width="30" height="30" rx="15" stroke="#14172A" stroke-opacity="0.5"/>
<path d="M67.4884 20V18.894C67.4884 18.2127 67.6051 17.6527 67.8384 17.214C68.0717 16.7753 68.4031 16.4207 68.8324 16.15C69.2711 15.87 69.7984 15.6367 70.4144 15.45L71.2684 15.184C71.6511 15.0627 71.9777 14.9133 72.2484 14.736C72.5284 14.5587 72.7431 14.3393 72.8924 14.078C73.0417 13.8073 73.1164 13.4947 73.1164 13.14V13.084C73.1164 12.5333 72.9297 12.104 72.5564 11.796C72.1831 11.4787 71.6931 11.32 71.0864 11.32C70.4611 11.32 69.9524 11.488 69.5604 11.824C69.1777 12.16 68.9864 12.6547 68.9864 13.308V13.532H67.5304V13.322C67.5304 12.6127 67.6844 12.0153 67.9924 11.53C68.3004 11.0353 68.7251 10.6573 69.2664 10.396C69.8077 10.1347 70.4144 10.004 71.0864 10.004C71.7584 10.004 72.3557 10.13 72.8784 10.382C73.4104 10.634 73.8257 10.9887 74.1244 11.446C74.4324 11.9033 74.5864 12.44 74.5864 13.056V13.182C74.5864 13.8167 74.4604 14.344 74.2084 14.764C73.9564 15.184 73.6064 15.5293 73.1584 15.8C72.7197 16.0707 72.2111 16.2993 71.6324 16.486L70.8064 16.738C70.3677 16.8687 70.0131 17.0133 69.7424 17.172C69.4811 17.3213 69.2851 17.5033 69.1544 17.718C69.0331 17.9327 68.9724 18.208 68.9724 18.544V18.684H74.5024V20H67.4884Z" fill="#14172A" fill-opacity="0.5"/>
</svg>
