<svg width="87" height="32" viewBox="0 0 87 32" fill="none" xmlns="http://www.w3.org/2000/svg">
<rect x="1" y="1" width="30" height="30" rx="15" fill="#E0F5E2"/>
<rect x="1" y="1" width="30" height="30" rx="15" stroke="#E0F5E2"/>
<path d="M16.0002 23.1667C12.0468 23.1667 8.8335 19.9533 8.8335 16C8.8335 12.0467 12.0468 8.83334 16.0002 8.83334C19.9535 8.83334 23.1668 12.0467 23.1668 16C23.1668 19.9533 19.9535 23.1667 16.0002 23.1667ZM16.0002 9.83334C12.6002 9.83334 9.8335 12.6 9.8335 16C9.8335 19.4 12.6002 22.1667 16.0002 22.1667C19.4002 22.1667 22.1668 19.4 22.1668 16C22.1668 12.6 19.4002 9.83334 16.0002 9.83334Z" fill="#0C9319"/>
<path d="M15.0535 18.3867C14.9201 18.3867 14.7935 18.3333 14.7001 18.24L12.8135 16.3533C12.6201 16.16 12.6201 15.84 12.8135 15.6467C13.0068 15.4533 13.3268 15.4533 13.5201 15.6467L15.0535 17.18L18.4801 13.7533C18.6735 13.56 18.9935 13.56 19.1868 13.7533C19.3801 13.9467 19.3801 14.2667 19.1868 14.46L15.4068 18.24C15.3135 18.3333 15.1868 18.3867 15.0535 18.3867Z" fill="#0C9319"/>
<line x1="31" y1="15.5" x2="56" y2="15.5" stroke="#14172A" stroke-opacity="0.5"/>
<rect x="56" y="1" width="30" height="30" rx="15" fill="#14172A"/>
<rect x="56" y="1" width="30" height="30" rx="15" stroke="#14172A"/>
<path d="M67.4884 21V19.894C67.4884 19.2127 67.6051 18.6527 67.8384 18.214C68.0717 17.7753 68.4031 17.4207 68.8324 17.15C69.2711 16.87 69.7984 16.6367 70.4144 16.45L71.2684 16.184C71.6511 16.0627 71.9777 15.9133 72.2484 15.736C72.5284 15.5587 72.7431 15.3393 72.8924 15.078C73.0417 14.8073 73.1164 14.4947 73.1164 14.14V14.084C73.1164 13.5333 72.9297 13.104 72.5564 12.796C72.1831 12.4787 71.6931 12.32 71.0864 12.32C70.4611 12.32 69.9524 12.488 69.5604 12.824C69.1777 13.16 68.9864 13.6547 68.9864 14.308V14.532H67.5304V14.322C67.5304 13.6127 67.6844 13.0153 67.9924 12.53C68.3004 12.0353 68.7251 11.6573 69.2664 11.396C69.8077 11.1347 70.4144 11.004 71.0864 11.004C71.7584 11.004 72.3557 11.13 72.8784 11.382C73.4104 11.634 73.8257 11.9887 74.1244 12.446C74.4324 12.9033 74.5864 13.44 74.5864 14.056V14.182C74.5864 14.8167 74.4604 15.344 74.2084 15.764C73.9564 16.184 73.6064 16.5293 73.1584 16.8C72.7197 17.0707 72.2111 17.2993 71.6324 17.486L70.8064 17.738C70.3677 17.8687 70.0131 18.0133 69.7424 18.172C69.4811 18.3213 69.2851 18.5033 69.1544 18.718C69.0331 18.9327 68.9724 19.208 68.9724 19.544V19.684H74.5024V21H67.4884Z" fill="#F8F8FF"/>
</svg>
