<svg width="18" height="18" viewBox="0 0 18 18" fill="none" xmlns="http://www.w3.org/2000/svg">
<path d="M4.05746 16.3125C3.21746 16.3125 2.68496 16.0275 2.34746 15.69C1.68746 15.03 1.22246 13.6275 2.70746 10.65L3.35996 9.35249C3.44246 9.17999 3.44246 8.81999 3.35996 8.64749L2.70746 7.34999C1.21496 4.37249 1.68746 2.96249 2.34746 2.30999C2.99996 1.64999 4.40996 1.17749 7.37996 2.66999L13.8 5.87999C15.3975 6.67499 16.275 7.78499 16.275 8.99999C16.275 10.215 15.3975 11.325 13.8075 12.12L7.38746 15.33C5.93246 16.0575 4.85246 16.3125 4.05746 16.3125ZM4.05746 2.81249C3.65246 2.81249 3.33746 2.90999 3.14246 3.10499C2.59496 3.64499 2.81246 5.04749 3.71246 6.83999L4.36496 8.14499C4.60496 8.63249 4.60496 9.36749 4.36496 9.85499L3.71246 11.1525C2.81246 12.9525 2.59496 14.3475 3.14246 14.8875C3.68246 15.435 5.08496 15.2175 6.88496 14.3175L13.305 11.1075C14.4825 10.5225 15.15 9.74999 15.15 8.99249C15.15 8.23499 14.475 7.46249 13.2975 6.87749L6.87746 3.67499C5.73746 3.10499 4.75496 2.81249 4.05746 2.81249Z" fill="#F8F8FF"/>
<path d="M8.13008 9.5625H4.08008C3.77258 9.5625 3.51758 9.3075 3.51758 9C3.51758 8.6925 3.77258 8.4375 4.08008 8.4375H8.13008C8.43758 8.4375 8.69258 8.6925 8.69258 9C8.69258 9.3075 8.43758 9.5625 8.13008 9.5625Z" fill="#F8F8FF"/>
</svg>
