<svg width="75" height="75" viewBox="0 0 75 75" fill="none" xmlns="http://www.w3.org/2000/svg">
<path d="M37.5 71.0938C18.9688 71.0938 3.90625 56.0312 3.90625 37.5C3.90625 18.9688 18.9688 3.90625 37.5 3.90625C56.0312 3.90625 71.0938 18.9688 71.0938 37.5C71.0938 56.0312 56.0312 71.0938 37.5 71.0938ZM37.5 8.59375C21.5625 8.59375 8.59375 21.5625 8.59375 37.5C8.59375 53.4375 21.5625 66.4062 37.5 66.4062C53.4375 66.4062 66.4062 53.4375 66.4062 37.5C66.4062 21.5625 53.4375 8.59375 37.5 8.59375Z" fill="#0C9319"/>
<path d="M33.0625 48.6875C32.4375 48.6875 31.8438 48.4375 31.4063 48L22.5625 39.1562C21.6563 38.25 21.6563 36.75 22.5625 35.8437C23.4687 34.9375 24.9687 34.9375 25.875 35.8437L33.0625 43.0313L49.125 26.9687C50.0313 26.0625 51.5313 26.0625 52.4375 26.9687C53.3438 27.875 53.3438 29.375 52.4375 30.2812L34.7188 48C34.2813 48.4375 33.6875 48.6875 33.0625 48.6875Z" fill="#0C9319"/>
</svg>
